<svg width="32" height="28" viewBox="0 0 32 28" fill="none" xmlns="http://www.w3.org/2000/svg">
<path d="M32.0002 4.91673C31.7708 5.67644 31.5327 6.43367 31.3127 7.1965C30.2945 10.7282 29.282 14.2611 28.2664 17.7933C28.0758 18.4566 27.7895 18.6682 27.0958 18.6682C21.5864 18.6682 16.077 18.6682 10.5683 18.6682C9.81517 18.6682 9.38204 19.006 9.37767 19.5965C9.37329 20.1851 9.81329 20.5348 10.5577 20.5348C16.0358 20.5348 21.5139 20.5348 26.9914 20.5348C27.0958 20.5348 27.1995 20.5323 27.3039 20.5366C27.8427 20.5584 28.2427 20.951 28.2477 21.4606C28.2527 21.982 27.8458 22.3877 27.2889 22.3995C26.8208 22.4089 26.3527 22.4014 25.8789 22.4195C26.6502 22.5862 27.2883 22.9595 27.7377 23.606C28.1845 24.2481 28.3239 24.963 28.1933 25.7364C27.9777 27.0169 26.692 28.0529 25.3727 27.9988C23.8745 27.9372 22.7495 26.8415 22.6333 25.3308C22.5289 23.9756 23.5402 22.7343 25.0789 22.4213H12.7045C12.9927 22.5445 13.3589 22.6453 13.6589 22.8444C13.9727 23.0529 14.2708 23.3223 14.4864 23.6278C14.6958 23.9239 14.8508 24.2879 14.9208 24.6438C14.9933 25.0103 14.9902 25.4129 14.9239 25.7825C14.692 27.0736 13.4064 28.0647 12.1045 27.9982C10.6227 27.9229 9.51517 26.8738 9.39267 25.3756C9.29579 24.1927 10.0039 22.8114 11.7452 22.3628C11.1439 22.3628 10.5377 22.4126 9.94267 22.3523C8.75517 22.2315 7.77204 21.2976 7.56142 20.1677C7.32892 18.9202 7.88142 17.7411 8.97829 17.1462C9.04142 17.112 9.10392 17.0753 9.19204 17.0249C8.06579 11.9788 6.93892 6.93019 5.80892 1.86853H2.66392C2.19517 1.86853 1.72517 1.84364 1.25829 1.87475C0.676416 1.91333 0.247666 1.72293 -0.00170898 1.1841V0.686334C0.197041 0.313631 0.450791 0.00563791 0.916416 0.0050157C2.79142 3.80318e-05 4.66642 -0.00369522 6.54142 0.00626012C7.01704 0.00874895 7.33954 0.278165 7.47517 0.735488C7.53954 0.953261 7.57767 1.17912 7.62767 1.40125C7.80142 2.17528 7.97579 2.94993 8.15204 3.73391H8.55454C15.9502 3.73391 23.3458 3.73827 30.7414 3.72582C31.3214 3.72458 31.7514 3.88013 32.0014 4.41834V4.91611L32.0002 4.91673ZM29.8145 5.62107H8.56892C9.40329 9.35867 10.2327 13.0739 11.062 16.7872H26.6102C27.6783 13.0652 28.7433 9.35556 29.8152 5.62107H29.8145ZM13.1227 25.2032C13.1233 24.6955 12.6989 24.2718 12.1889 24.2711C11.6795 24.2705 11.2533 24.6936 11.2527 25.2007C11.252 25.7084 11.6764 26.1322 12.1864 26.1328C12.6964 26.1334 13.122 25.7103 13.1227 25.2032ZM26.3727 25.2101C26.377 24.703 25.9558 24.2755 25.4458 24.2711C24.9364 24.2668 24.507 24.6862 24.5027 25.1939C24.4983 25.701 24.9195 26.1284 25.4295 26.1328C25.9389 26.1371 26.3683 25.7178 26.3727 25.2101Z" fill="black"/>
</svg>
