<?xml version="1.0" encoding="UTF-8"?>
<svg id="Layer_1" data-name="Layer 1" xmlns="http://www.w3.org/2000/svg" viewBox="0 0 512 450.01">
  <defs>
    <style>
      .cls-1 {
        stroke-width: 0px;
      }
    </style>
  </defs>
  <path class="cls-1" d="m512,79.02c-3.67,12.21-7.48,24.38-11,36.64-16.29,56.76-32.49,113.54-48.74,170.31-3.05,10.66-7.63,14.06-18.73,14.06-88.15,0-176.3,0-264.44,0-12.05,0-18.98,5.43-19.05,14.92-.07,9.46,6.97,15.08,18.88,15.08,87.65,0,175.3,0,262.94,0,1.67,0,3.33-.04,5,.03,8.62.35,15.02,6.66,15.1,14.85.08,8.38-6.43,14.9-15.34,15.09-7.49.15-14.98.03-22.56.32,12.34,2.68,22.55,8.68,29.74,19.07,7.15,10.32,9.38,21.81,7.29,34.24-3.45,20.58-24.02,37.23-45.13,36.36-23.97-.99-41.97-18.6-43.83-42.88-1.67-21.78,14.51-41.73,39.13-46.76h-197.99c4.61,1.98,10.47,3.6,15.27,6.8,5.02,3.35,9.79,7.68,13.24,12.59,3.35,4.76,5.83,10.61,6.95,16.33,1.16,5.89,1.11,12.36.05,18.3-3.71,20.75-24.28,36.68-45.11,35.61-23.71-1.21-41.43-18.07-43.39-42.15-1.55-19.01,9.78-41.21,37.64-48.42-9.62,0-19.32.8-28.84-.17-19-1.94-34.73-16.95-38.1-35.11-3.72-20.05,5.12-39,22.67-48.56,1.01-.55,2.01-1.14,3.42-1.95-18.02-81.1-36.05-162.24-54.13-243.59h-50.32c-7.5,0-15.02-.4-22.49.1-9.31.62-16.17-2.44-20.16-11.1v-8C3.15,5.04,7.21.09,14.66.08,44.66,0,74.66-.06,104.66.1c7.61.04,12.77,4.37,14.94,11.72,1.03,3.5,1.64,7.13,2.44,10.7,2.78,12.44,5.57,24.89,8.39,37.49h6.44c118.33,0,236.66.07,354.99-.13,9.28-.02,16.16,2.48,20.16,11.13v8Zm-34.97,11.32H137.1c13.35,60.07,26.62,119.78,39.89,179.46h248.77c17.09-59.82,34.13-119.44,51.28-179.46ZM209.96,405.06c.01-8.16-6.78-14.97-14.94-14.98-8.15-.01-14.97,6.79-14.98,14.94-.01,8.16,6.78,14.97,14.94,14.98,8.16.01,14.97-6.79,14.98-14.94Zm212,.11c.07-8.15-6.67-15.02-14.83-15.09-8.15-.07-15.02,6.67-15.09,14.83-.07,8.15,6.67,15.02,14.83,15.09,8.15.07,15.02-6.67,15.09-14.83Z"/>
</svg>