<svg width="199" height="30" viewBox="0 0 199 30" fill="none" xmlns="http://www.w3.org/2000/svg">
<path d="M0.869318 30V0.90909H12.0057C14.108 0.90909 15.8551 1.24053 17.2472 1.90341C18.6487 2.55682 19.6951 3.4517 20.3864 4.58807C21.0871 5.72443 21.4375 7.01231 21.4375 8.4517C21.4375 9.63542 21.2102 10.6487 20.7557 11.4915C20.3011 12.3248 19.6903 13.0019 18.9233 13.5227C18.1562 14.0436 17.2992 14.4176 16.3523 14.6449V14.929C17.3845 14.9858 18.3741 15.303 19.321 15.8807C20.2775 16.4489 21.0587 17.2538 21.6648 18.2955C22.2708 19.3371 22.5739 20.5966 22.5739 22.0739C22.5739 23.5795 22.2093 24.9337 21.4801 26.1364C20.7509 27.3295 19.6525 28.2718 18.1847 28.9631C16.7169 29.6544 14.8703 30 12.6449 30H0.869318ZM6.1392 25.5966H11.8068C13.7197 25.5966 15.0975 25.232 15.9403 24.5028C16.7926 23.7642 17.2188 22.8172 17.2188 21.6619C17.2188 20.8002 17.0057 20.0237 16.5795 19.3324C16.1534 18.6316 15.5473 18.0824 14.7614 17.6847C13.9754 17.2775 13.0379 17.0739 11.9489 17.0739H6.1392V25.5966ZM6.1392 13.2812H11.3523C12.2614 13.2812 13.0805 13.1155 13.8097 12.7841C14.5388 12.4432 15.1117 11.965 15.5284 11.3494C15.9545 10.7244 16.1676 9.9858 16.1676 9.13352C16.1676 8.00663 15.7699 7.0786 14.9744 6.34943C14.1884 5.62026 13.0189 5.25568 11.4659 5.25568H6.1392V13.2812ZM52.4283 0.90909V30H47.1584V0.90909H52.4283ZM102.041 0.90909V30H97.3537L83.6463 10.1847H83.4048V30H78.1349V0.90909H82.8509L96.544 20.7386H96.7997V0.90909H102.041ZM127.783 30V0.90909H133.053V14.2756H133.408L144.758 0.90909H151.192L139.942 13.9631L151.292 30H144.957L136.278 17.5284L133.053 21.3352V30H127.783Z" fill="black"/>
<path d="M179.257 0.90909L185.663 11.5625H185.891L192.325 0.90909H198.334L189.371 15.4545L198.476 30H192.368L185.891 19.4176H185.663L179.186 30H173.107L182.297 15.4545L173.22 0.90909H179.257Z" fill="#3B9B73"/>
</svg>
