<svg width="250" height="150" viewBox="0 0 250 150" fill="none" xmlns="http://www.w3.org/2000/svg">
<path d="M125.192 123.857V26.3333H154.963V65.7619H156.463L189.446 26.3333H224.143L187.09 69.7619L225 123.857H189.446L164.816 87.2857L154.963 98.7143V123.857H125.192Z" fill="#131313"/>
<path d="M86.898 56.8095C86.6124 53.6349 85.2738 51.1587 82.8821 49.381C80.5261 47.6032 76.9386 46.7143 72.1196 46.7143C69.0496 46.7143 66.533 47.0476 64.5697 47.7143C62.6421 48.3492 61.2142 49.2222 60.2861 50.3333C59.358 51.4444 58.8761 52.7143 58.8404 54.1429C58.769 55.3175 59.001 56.381 59.5365 57.3333C60.1076 58.254 61.0001 59.0952 62.2137 59.8571C63.4274 60.5873 64.9802 61.254 66.8721 61.8571C68.7641 62.4603 71.013 63 73.6188 63.4762L82.6144 65.1905C88.6828 66.3333 93.8766 67.8413 98.1959 69.7143C102.515 71.5873 106.049 73.7937 108.798 76.3333C111.546 78.8413 113.563 81.6667 114.848 84.8095C116.169 87.9524 116.847 91.381 116.883 95.0952C116.847 101.508 115.045 106.937 111.475 111.381C107.905 115.825 102.801 119.206 96.1612 121.524C89.5574 123.841 81.6149 125 72.3337 125C62.8027 125 54.4854 123.746 47.3818 121.238C40.3139 118.73 34.8166 114.873 30.8899 109.667C26.999 104.429 25.0357 97.7302 25 89.5714H53.2717C53.4502 92.5556 54.2891 95.0635 55.7883 97.0952C57.2876 99.127 59.3937 100.667 62.1066 101.714C64.8553 102.762 68.1215 103.286 71.9054 103.286C75.0824 103.286 77.7418 102.937 79.8836 102.238C82.0254 101.54 83.6496 100.571 84.7562 99.3333C85.8628 98.0952 86.4339 96.6825 86.4696 95.0952C86.4339 93.6032 85.8806 92.3016 84.8097 91.1905C83.7745 90.0476 82.0611 89.0317 79.6694 88.1429C77.2777 87.2222 74.0472 86.3651 69.9778 85.5714L59.0546 83.4762C49.3451 81.6032 41.6882 78.4762 36.0838 74.0952C30.5151 69.6825 27.7486 63.6667 27.7843 56.0476C27.7486 49.8571 29.6049 44.4444 33.353 39.8095C37.1369 35.1429 42.3664 31.5079 49.0417 28.9048C55.7526 26.3016 63.4453 25 72.1196 25C80.9723 25 88.6292 26.3175 95.0903 28.9524C101.551 31.5873 106.531 35.3016 110.029 40.0952C113.563 44.8571 115.348 50.4286 115.384 56.8095H86.898Z" fill="#131313"/>
<path fill-rule="evenodd" clip-rule="evenodd" d="M240 10H10V140H240V10ZM0 0V150H250V0H0Z" fill="#131313"/>
</svg>
