<svg width="856" height="150" viewBox="0 0 856 150" fill="none" xmlns="http://www.w3.org/2000/svg">
<path d="M26.2768 0.851339C20.6118 2.83783 16.3531 7.21621 14.6254 12.973C14.1835 14.5135 13.9023 17.3919 13.7416 22.3784L13.5005 29.5946H16.2727C24.7099 29.6351 32.7051 34.5 36.2809 41.7973C38.7719 46.9054 38.9326 48.3649 38.9326 67.7838V85.1351H67.8601H96.7876V42.5676V-8.88109e-06H62.7576C29.491 0.0405317 28.6473 0.040528 26.2768 0.851339Z" fill="#7B7B7B"/>
<path d="M103.216 42.5676V85.1351H132.143H161.071V67.7838C161.071 48.3649 161.232 46.9054 163.723 41.7973C167.298 34.5 175.294 29.6351 183.731 29.5946H186.503L186.262 22.3784C186.101 16.6216 185.9 14.6757 185.217 12.4865C183.53 7.17567 178.99 2.63513 173.606 0.851344C171.155 -7.31647e-06 170.352 -7.31647e-06 137.166 -7.31647e-06H103.216V42.5676Z" fill="#151515"/>
<path d="M11.0095 37.0135C6.95162 38.3919 3.41603 41.3514 1.64824 44.8379C-0.0391959 48.2027 -0.079373 49.3784 0.0411583 83.3108C0.16169 115.541 0.16169 115.743 1.04559 117.649C2.21072 120.203 4.78206 122.635 7.43374 123.649C9.64348 124.459 9.9649 124.459 100.002 124.459C190.039 124.459 190.36 124.459 192.57 123.649C195.221 122.635 197.793 120.203 198.958 117.649C199.842 115.743 199.842 115.541 199.962 83.5135C200.083 49.8243 200.003 48.1216 198.355 44.8379C197.029 42.2027 193.855 39.1216 191.083 37.8649C188.793 36.7703 188.231 36.6892 183.771 36.6892C179.311 36.6892 178.789 36.7703 176.7 37.7838C173.646 39.3243 170.834 42.2027 169.347 45.4054L168.102 48.0406L167.981 70.0135L167.861 92.027H100.002H32.1427L32.0221 70.0135L31.9016 48.0406L30.6561 45.4054C29.1695 42.2027 26.317 39.2838 23.3037 37.8243C21.3752 36.8919 20.4511 36.7297 16.8352 36.6081C14.1031 36.527 12.0541 36.6892 11.0095 37.0135Z" fill="#151515"/>
<path d="M21.6564 137.716C21.6564 144.649 22.0582 146.351 24.1072 148.257C25.875 149.878 26.8795 150 39.937 150C52.9946 150 53.999 149.878 55.7668 148.257C57.8158 146.351 58.2176 144.649 58.2176 137.716V131.351H39.937H21.6564V137.716Z" fill="#151515"/>
<path d="M141.786 137.716C141.786 144.649 142.188 146.351 144.237 148.257C146.005 149.878 147.009 150 160.067 150C173.124 150 174.129 149.878 175.896 148.257C177.945 146.351 178.347 144.649 178.347 137.716V131.351H160.067H141.786V137.716Z" fill="#7B7B7B"/>
<path d="M788.176 142C784.376 142 781.176 140.9 778.576 138.7C775.976 136.5 774.676 133.7 774.676 130.3V18.7C774.676 15.5 775.876 12.8 778.276 10.6C780.876 8.2 784.176 7 788.176 7C791.976 7 795.076 8.2 797.476 10.6C799.876 12.8 801.076 15.6 801.076 19V70.6C801.076 73 801.776 74.2 803.176 74.2C803.576 74.2 804.376 73.8 805.576 73L834.676 51.4C837.076 49.8 839.676 49 842.476 49C845.876 49 848.676 50.2 850.876 52.6C853.076 55 854.176 57.8 854.176 61C854.176 65.4 852.176 68.9 848.176 71.5L824.476 87.1C822.476 88.5 821.476 90 821.476 91.6C821.476 93.2 822.276 94.5 823.876 95.5L851.176 120.1C852.976 121.5 854.176 123.1 854.776 124.9C855.376 126.7 855.676 128.4 855.676 130C855.676 133.2 854.376 136 851.776 138.4C849.376 140.8 846.476 142 843.076 142C839.676 142 836.676 140.7 834.076 138.1L804.676 109.3C804.076 108.7 803.376 108.4 802.576 108.4C801.576 108.4 801.076 109.2 801.076 110.8V130C801.076 133.4 799.776 136.3 797.176 138.7C794.776 140.9 791.776 142 788.176 142Z" fill="black"/>
<path d="M718.864 142C705.264 142 694.064 139.2 685.264 133.6C683.464 132.4 682.164 131 681.364 129.4C680.564 127.6 680.164 125.9 680.164 124.3C680.164 120.9 681.264 117.8 683.464 115C685.864 112.2 688.764 110.8 692.164 110.8C693.764 110.8 695.364 111.2 696.964 112C700.564 113.6 704.664 115 709.264 116.2C713.864 117.2 718.064 117.7 721.864 117.7C729.264 117.7 732.964 116 732.964 112.6C732.964 110.6 732.064 108.9 730.264 107.5C728.464 105.9 724.264 104.8 717.664 104.2C715.064 104 711.664 103.6 707.464 103C703.464 102.4 699.464 101.3 695.464 99.7C691.464 97.9 688.064 95.3 685.264 91.9C682.664 88.5 681.364 83.9 681.364 78.1C681.364 69.1 684.764 62 691.564 56.8C698.364 51.6 707.464 49 718.864 49C725.464 49 731.664 49.7 737.464 51.1C743.464 52.5 747.964 54.6 750.964 57.4C753.764 60 755.164 63 755.164 66.4C755.164 69.4 754.064 72.1 751.864 74.5C749.664 76.9 746.864 78.1 743.464 78.1C741.664 78.1 739.964 77.7 738.364 76.9C735.964 75.3 732.864 74.1 729.064 73.3C725.464 72.5 721.764 72.1 717.964 72.1C710.364 72.1 706.564 73.7 706.564 76.9C706.564 78.3 707.264 79.6 708.664 80.8C710.264 81.8 713.764 82.7 719.164 83.5C722.564 83.9 726.464 84.5 730.864 85.3C735.264 85.9 739.464 87.1 743.464 88.9C747.664 90.5 751.164 93.2 753.964 97C756.764 100.8 758.164 106 758.164 112.6C758.164 121.6 754.564 128.8 747.364 134.2C740.164 139.4 730.664 142 718.864 142Z" fill="black"/>
<path d="M626.546 142C612.946 142 601.446 138 592.046 130C582.846 121.8 578.246 110.6 578.246 96.4C578.246 81.6 582.746 70 591.746 61.6C600.946 53.2 612.446 49 626.246 49C636.046 49 644.146 50.8 650.546 54.4C656.946 58 661.746 62.6 664.946 68.2C668.146 73.8 669.746 79.7 669.746 85.9C669.746 96.3 665.146 101.5 655.946 101.5H606.146C604.546 101.5 603.746 102.5 603.746 104.5C603.746 109.1 606.246 112.8 611.246 115.6C616.446 118.2 622.246 119.5 628.646 119.5C632.646 119.5 636.646 119 640.646 118C644.646 116.8 648.146 115.1 651.146 112.9C653.146 111.5 655.246 110.8 657.446 110.8C660.446 110.8 662.946 111.9 664.946 114.1C667.146 116.3 668.246 118.9 668.246 121.9C668.246 125.5 666.346 128.9 662.546 132.1C658.946 135.1 653.646 137.5 646.646 139.3C639.846 141.1 633.146 142 626.546 142ZM642.146 84.1C642.546 84.1 643.046 84 643.646 83.8C644.446 83.6 644.846 82.9 644.846 81.7C644.846 78.7 642.946 76 639.146 73.6C635.546 71 630.846 69.7 625.046 69.7C618.846 69.7 613.746 71.1 609.746 73.9C605.946 76.5 604.046 79.2 604.046 82C604.046 83.4 604.846 84.1 606.446 84.1H642.146Z" fill="black"/>
<path d="M513.076 142C499.676 142 488.876 137.8 480.676 129.4C472.676 120.8 468.676 109.4 468.676 95.2C468.676 81 472.576 69.8 480.376 61.6C488.376 53.2 498.976 49 512.176 49C520.776 49 528.476 52.1 535.276 58.3V19C535.276 15.6 536.476 12.8 538.876 10.6C541.276 8.2 544.376 7 548.176 7C552.176 7 555.376 8.2 557.776 10.6C560.376 12.8 561.676 15.5 561.676 18.7V130.3C561.676 133.7 560.376 136.5 557.776 138.7C555.376 140.9 552.176 142 548.176 142C541.776 142 537.676 139.2 535.876 133.6C529.676 139.2 522.076 142 513.076 142ZM515.176 117.7C521.176 117.7 525.976 115.6 529.576 111.4C533.376 107 535.276 101.6 535.276 95.2C535.276 88.6 533.376 83.3 529.576 79.3C525.976 75.3 521.176 73.3 515.176 73.3C508.976 73.3 503.976 75.3 500.176 79.3C496.576 83.3 494.776 88.6 494.776 95.2C494.776 101.6 496.576 107 500.176 111.4C503.976 115.6 508.976 117.7 515.176 117.7Z" fill="#7B7B7B"/>
<path d="M406.505 142C397.905 142 390.005 140 382.805 136C375.605 132 369.805 126.5 365.405 119.5C361.205 112.3 359.105 104.2 359.105 95.2C359.105 86 361.205 78 365.405 71.2C369.805 64.2 375.605 58.8 382.805 55C390.005 51 397.905 49 406.505 49C415.305 49 423.205 51 430.205 55C437.405 58.8 443.105 64.2 447.305 71.2C451.505 78 453.605 86 453.605 95.2C453.605 104.2 451.505 112.3 447.305 119.5C443.105 126.5 437.405 132 430.205 136C423.205 140 415.305 142 406.505 142ZM406.505 117.7C412.705 117.7 417.705 115.6 421.505 111.4C425.505 107 427.505 101.6 427.505 95.2C427.505 88.6 425.505 83.3 421.505 79.3C417.705 75.3 412.705 73.3 406.505 73.3C400.505 73.3 395.405 75.3 391.205 79.3C387.205 83.3 385.205 88.6 385.205 95.2C385.205 101.6 387.205 107 391.205 111.4C395.405 115.6 400.505 117.7 406.505 117.7Z" fill="black"/>
<path d="M299 142C289.8 142 281.2 140.5 273.2 137.5C265.2 134.3 258.9 130.1 254.3 124.9C252.1 122.5 251 119.7 251 116.5C251 113.1 252.3 110.1 254.9 107.5C257.5 104.9 260.6 103.6 264.2 103.6C267.6 103.6 270.5 104.8 272.9 107.2C276.3 110.4 280.6 112.9 285.8 114.7C291 116.5 296.1 117.4 301.1 117.4C306.3 117.4 310.8 116.3 314.6 114.1C318.4 111.7 320.3 108 320.3 103C320.3 98.8 318.5 95.6 314.9 93.4C311.5 91 305.7 89.1 297.5 87.7C282.9 85.3 271.9 81.3 264.5 75.7C257.1 69.9 253.4 61.8 253.4 51.4C253.4 40.2 257.7 31.3 266.3 24.7C274.9 17.9 286.2 14.5 300.2 14.5C314.6 14.5 326.1 18.2 334.7 25.6C338.1 28.4 339.8 31.7 339.8 35.5C339.8 38.7 338.5 41.5 335.9 43.9C333.5 46.1 330.6 47.2 327.2 47.2C324.6 47.2 322.2 46.5 320 45.1C312.4 40.3 304.4 37.9 296 37.9C291 37.9 286.8 38.9 283.4 40.9C280 42.9 278.3 45.9 278.3 49.9C278.3 54.1 280.9 57.4 286.1 59.8C291.5 62.2 299.3 64.4 309.5 66.4C315.1 67.4 320.6 69.2 326 71.8C331.6 74.2 336.2 77.9 339.8 82.9C343.6 87.9 345.5 94.7 345.5 103.3C345.5 114.7 341.1 124 332.3 131.2C323.7 138.4 312.6 142 299 142Z" fill="black"/>
</svg>
